<svg xmlns="http://www.w3.org/2000/svg" xmlns:xlink="http://www.w3.org/1999/xlink" width="365" zoomAndPan="magnify" viewBox="0 0 273.75 161.999997" height="216" preserveAspectRatio="xMidYMid meet" version="1.2"><defs><clipPath id="442bcc96dc"><path d="M 24 84.261719 L 123.644531 84.261719 L 123.644531 90 L 24 90 Z M 24 84.261719 "/></clipPath><clipPath id="d8004ab501"><path d="M 24 92 L 123.644531 92 L 123.644531 98 L 24 98 Z M 24 92 "/></clipPath><clipPath id="54d8d7dc92"><path d="M 24 99 L 123.644531 99 L 123.644531 105 L 24 105 Z M 24 99 "/></clipPath><clipPath id="6253e0113c"><path d="M 24 107 L 123.644531 107 L 123.644531 112.734375 L 24 112.734375 Z M 24 107 "/></clipPath></defs><g id="fb24adf6ca"><g clip-rule="nonzero" clip-path="url(#442bcc96dc)"><path style=" stroke:none;fill-rule:nonzero;fill:#3c7f72;fill-opacity:1;" d="M 123.480469 84.261719 L 123.480469 89.171875 L 24.152344 89.171875 L 24.152344 84.261719 Z M 123.480469 84.261719 "/></g><g clip-rule="nonzero" clip-path="url(#d8004ab501)"><path style=" stroke:none;fill-rule:nonzero;fill:#992800;fill-opacity:1;" d="M 123.480469 92.121094 L 123.480469 97.03125 L 24.152344 97.03125 L 24.152344 92.121094 Z M 123.480469 92.121094 "/></g><g clip-rule="nonzero" clip-path="url(#54d8d7dc92)"><path style=" stroke:none;fill-rule:nonzero;fill:#d34a24;fill-opacity:1;" d="M 123.480469 99.96875 L 123.480469 104.878906 L 24.152344 104.878906 L 24.152344 99.96875 Z M 123.480469 99.96875 "/></g><g clip-rule="nonzero" clip-path="url(#6253e0113c)"><path style=" stroke:none;fill-rule:nonzero;fill:#ffaf00;fill-opacity:1;" d="M 123.480469 107.828125 L 123.480469 112.738281 L 24.152344 112.738281 L 24.152344 107.828125 Z M 123.480469 107.828125 "/></g><g style="fill:#e4e2dd;fill-opacity:1;"><g transform="translate(24.080746, 73.568295)"><path style="stroke:none" d="M 3.203125 -25.640625 C 2.640625 -26.203125 2.015625 -26.664062 1.328125 -27.03125 C 0.640625 -27.394531 0.296875 -27.976562 0.296875 -28.78125 C 0.296875 -29.46875 0.640625 -29.929688 1.328125 -30.171875 C 2.015625 -30.410156 2.835938 -30.53125 3.796875 -30.53125 C 4.722656 -30.53125 5.660156 -30.476562 6.609375 -30.375 C 7.554688 -30.28125 8.390625 -30.234375 9.109375 -30.234375 C 10.035156 -30.234375 11 -30.289062 12 -30.40625 C 13.007812 -30.53125 13.914062 -30.59375 14.71875 -30.59375 C 15.445312 -30.59375 16.050781 -30.488281 16.53125 -30.28125 C 17.019531 -30.082031 17.265625 -29.703125 17.265625 -29.140625 C 17.265625 -28.578125 17.050781 -28.113281 16.625 -27.75 C 16.195312 -27.394531 15.800781 -27.003906 15.4375 -26.578125 C 15.082031 -26.160156 15.023438 -25.566406 15.265625 -24.796875 C 15.390625 -24.398438 15.609375 -23.757812 15.921875 -22.875 C 16.242188 -21.988281 16.609375 -21.019531 17.015625 -19.96875 C 17.421875 -18.925781 17.8125 -17.910156 18.1875 -16.921875 C 18.570312 -15.941406 18.90625 -15.109375 19.1875 -14.421875 C 19.550781 -13.578125 19.914062 -13.578125 20.28125 -14.421875 C 20.601562 -15.148438 21.023438 -16.1875 21.546875 -17.53125 C 22.066406 -18.875 22.617188 -20.289062 23.203125 -21.78125 C 23.785156 -23.269531 24.296875 -24.617188 24.734375 -25.828125 C 25.179688 -27.035156 25.484375 -27.835938 25.640625 -28.234375 C 25.960938 -29.117188 26.273438 -29.722656 26.578125 -30.046875 C 26.878906 -30.367188 27.273438 -30.53125 27.765625 -30.53125 C 28.242188 -30.53125 28.601562 -30.378906 28.84375 -30.078125 C 29.082031 -29.773438 29.363281 -29.203125 29.6875 -28.359375 C 29.882812 -27.835938 30.234375 -26.941406 30.734375 -25.671875 C 31.242188 -24.410156 31.800781 -23.003906 32.40625 -21.453125 C 33.007812 -19.898438 33.570312 -18.457031 34.09375 -17.125 C 34.613281 -15.800781 34.992188 -14.820312 35.234375 -14.1875 C 35.554688 -13.257812 35.921875 -13.257812 36.328125 -14.1875 C 36.734375 -15.144531 37.21875 -16.316406 37.78125 -17.703125 C 38.34375 -19.097656 38.863281 -20.4375 39.34375 -21.71875 C 39.820312 -23.007812 40.144531 -23.9375 40.3125 -24.5 C 40.550781 -25.257812 40.488281 -25.847656 40.125 -26.265625 C 39.757812 -26.691406 39.363281 -27.085938 38.9375 -27.453125 C 38.519531 -27.816406 38.3125 -28.28125 38.3125 -28.84375 C 38.3125 -29.40625 38.460938 -29.785156 38.765625 -29.984375 C 39.066406 -30.191406 39.460938 -30.296875 39.953125 -30.296875 C 40.515625 -30.296875 41.113281 -30.234375 41.75 -30.109375 C 42.394531 -29.992188 43.039062 -29.9375 43.6875 -29.9375 C 44.164062 -29.9375 44.707031 -29.992188 45.3125 -30.109375 C 45.914062 -30.234375 46.476562 -30.296875 47 -30.296875 C 47.53125 -30.296875 47.960938 -30.191406 48.296875 -29.984375 C 48.640625 -29.785156 48.8125 -29.382812 48.8125 -28.78125 C 48.8125 -28.0625 48.46875 -27.457031 47.78125 -26.96875 C 47.101562 -26.488281 46.484375 -25.96875 45.921875 -25.40625 C 45.398438 -24.882812 44.847656 -24.097656 44.265625 -23.046875 C 43.679688 -22.003906 43.117188 -20.878906 42.578125 -19.671875 C 42.035156 -18.460938 41.539062 -17.296875 41.09375 -16.171875 C 40.65625 -15.046875 40.296875 -14.140625 40.015625 -13.453125 C 39.441406 -12.046875 38.8125 -10.566406 38.125 -9.015625 C 37.445312 -7.472656 36.796875 -5.984375 36.171875 -4.546875 C 35.546875 -3.117188 35.015625 -1.882812 34.578125 -0.84375 C 34.171875 0.125 33.503906 0.609375 32.578125 0.609375 C 31.660156 0.609375 31 0.125 30.59375 -0.84375 C 30.15625 -1.882812 29.625 -3.117188 29 -4.546875 C 28.375 -5.984375 27.726562 -7.472656 27.0625 -9.015625 C 26.394531 -10.566406 25.757812 -12.046875 25.15625 -13.453125 C 25 -13.972656 24.78125 -14.234375 24.5 -14.234375 C 24.175781 -14.234375 23.9375 -13.972656 23.78125 -13.453125 C 23.21875 -12.085938 22.59375 -10.617188 21.90625 -9.046875 C 21.21875 -7.484375 20.570312 -5.992188 19.96875 -4.578125 C 19.363281 -3.171875 18.882812 -2.007812 18.53125 -1.09375 C 18.125 -0.125 17.457031 0.359375 16.53125 0.359375 C 15.601562 0.359375 14.941406 -0.125 14.546875 -1.09375 C 14.140625 -2.132812 13.613281 -3.367188 12.96875 -4.796875 C 12.332031 -6.222656 11.679688 -7.710938 11.015625 -9.265625 C 10.347656 -10.816406 9.710938 -12.296875 9.109375 -13.703125 C 8.828125 -14.378906 8.460938 -15.28125 8.015625 -16.40625 C 7.578125 -17.539062 7.085938 -18.707031 6.546875 -19.90625 C 6.003906 -21.113281 5.453125 -22.238281 4.890625 -23.28125 C 4.328125 -24.332031 3.765625 -25.117188 3.203125 -25.640625 Z M 3.203125 -25.640625 "/></g></g><g style="fill:#e4e2dd;fill-opacity:1;"><g transform="translate(71.271685, 73.568295)"><path style="stroke:none" d="M 0.609375 -1.140625 C 0.609375 -1.585938 0.707031 -1.921875 0.90625 -2.140625 C 1.101562 -2.359375 1.34375 -2.640625 1.625 -2.984375 C 1.90625 -3.328125 2.144531 -3.859375 2.34375 -4.578125 C 2.550781 -5.304688 2.65625 -6.375 2.65625 -7.78125 L 2.65625 -15.03125 C 2.695312 -16.675781 2.71875 -18.210938 2.71875 -19.640625 C 2.71875 -21.066406 2.71875 -21.984375 2.71875 -22.390625 C 2.71875 -23.796875 2.613281 -24.859375 2.40625 -25.578125 C 2.207031 -26.304688 1.96875 -26.84375 1.6875 -27.1875 C 1.40625 -27.53125 1.160156 -27.8125 0.953125 -28.03125 C 0.753906 -28.25 0.65625 -28.582031 0.65625 -29.03125 C 0.65625 -29.632812 0.882812 -30.035156 1.34375 -30.234375 C 1.8125 -30.429688 2.390625 -30.53125 3.078125 -30.53125 C 3.796875 -30.53125 4.566406 -30.46875 5.390625 -30.34375 C 6.222656 -30.226562 6.941406 -30.171875 7.546875 -30.171875 L 8.203125 -30.171875 C 9.609375 -30.171875 11.003906 -30.226562 12.390625 -30.34375 C 13.785156 -30.46875 15.164062 -30.53125 16.53125 -30.53125 C 18.707031 -30.53125 20.648438 -30.128906 22.359375 -29.328125 C 24.066406 -28.523438 25.421875 -27.40625 26.421875 -25.96875 C 27.429688 -24.539062 27.9375 -22.84375 27.9375 -20.875 C 27.9375 -19.226562 27.570312 -17.648438 26.84375 -16.140625 C 26.125 -14.628906 25.007812 -13.398438 23.5 -12.453125 C 21.988281 -11.515625 20.050781 -11.046875 17.6875 -11.046875 C 16.070312 -11.046875 14.722656 -11.285156 13.640625 -11.765625 C 12.796875 -12.128906 12.375 -11.910156 12.375 -11.109375 L 12.375 -7.78125 C 12.375 -6.375 12.472656 -5.304688 12.671875 -4.578125 C 12.867188 -3.859375 13.109375 -3.328125 13.390625 -2.984375 C 13.671875 -2.640625 13.910156 -2.359375 14.109375 -2.140625 C 14.316406 -1.921875 14.421875 -1.585938 14.421875 -1.140625 C 14.421875 -0.535156 14.1875 -0.132812 13.71875 0.0625 C 13.257812 0.257812 12.691406 0.359375 12.015625 0.359375 C 11.242188 0.359375 10.445312 0.296875 9.625 0.171875 C 8.800781 0.0546875 8.085938 0 7.484375 0 C 6.878906 0 6.164062 0.0546875 5.34375 0.171875 C 4.519531 0.296875 3.742188 0.359375 3.015625 0.359375 C 2.328125 0.359375 1.753906 0.257812 1.296875 0.0625 C 0.835938 -0.132812 0.609375 -0.535156 0.609375 -1.140625 Z M 12.4375 -16.59375 C 12.4375 -15.707031 12.9375 -15.265625 13.9375 -15.265625 C 15.101562 -15.265625 15.957031 -15.847656 16.5 -17.015625 C 17.039062 -18.179688 17.3125 -19.585938 17.3125 -21.234375 C 17.3125 -23.085938 17.070312 -24.554688 16.59375 -25.640625 C 16.113281 -26.734375 15.226562 -27.28125 13.9375 -27.28125 C 13.539062 -27.28125 13.191406 -27.164062 12.890625 -26.9375 C 12.585938 -26.71875 12.4375 -26.367188 12.4375 -25.890625 Z M 12.4375 -16.59375 "/></g></g><g style="fill:#e4e2dd;fill-opacity:1;"><g transform="translate(98.487865, 73.568295)"><path style="stroke:none" d=""/></g></g><g style="fill:#e4e2dd;fill-opacity:1;"><g transform="translate(105.608589, 73.568295)"><path style="stroke:none" d="M 0.609375 -1.140625 C 0.609375 -1.585938 0.707031 -1.921875 0.90625 -2.140625 C 1.101562 -2.359375 1.34375 -2.640625 1.625 -2.984375 C 1.90625 -3.328125 2.144531 -3.859375 2.34375 -4.578125 C 2.550781 -5.304688 2.65625 -6.375 2.65625 -7.78125 L 2.65625 -15.03125 C 2.695312 -16.675781 2.71875 -18.210938 2.71875 -19.640625 C 2.71875 -21.066406 2.71875 -21.984375 2.71875 -22.390625 C 2.71875 -23.796875 2.613281 -24.859375 2.40625 -25.578125 C 2.207031 -26.304688 1.96875 -26.84375 1.6875 -27.1875 C 1.40625 -27.53125 1.160156 -27.8125 0.953125 -28.03125 C 0.753906 -28.25 0.65625 -28.582031 0.65625 -29.03125 C 0.65625 -29.632812 0.882812 -30.035156 1.34375 -30.234375 C 1.8125 -30.429688 2.390625 -30.53125 3.078125 -30.53125 C 3.796875 -30.53125 4.566406 -30.46875 5.390625 -30.34375 C 6.222656 -30.226562 6.941406 -30.171875 7.546875 -30.171875 L 8.203125 -30.171875 C 9.609375 -30.171875 11.003906 -30.226562 12.390625 -30.34375 C 13.785156 -30.46875 15.164062 -30.53125 16.53125 -30.53125 C 18.707031 -30.53125 20.648438 -30.128906 22.359375 -29.328125 C 24.066406 -28.523438 25.421875 -27.40625 26.421875 -25.96875 C 27.429688 -24.539062 27.9375 -22.84375 27.9375 -20.875 C 27.9375 -19.226562 27.570312 -17.648438 26.84375 -16.140625 C 26.125 -14.628906 25.007812 -13.398438 23.5 -12.453125 C 21.988281 -11.515625 20.050781 -11.046875 17.6875 -11.046875 C 16.070312 -11.046875 14.722656 -11.285156 13.640625 -11.765625 C 12.796875 -12.128906 12.375 -11.910156 12.375 -11.109375 L 12.375 -7.78125 C 12.375 -6.375 12.472656 -5.304688 12.671875 -4.578125 C 12.867188 -3.859375 13.109375 -3.328125 13.390625 -2.984375 C 13.671875 -2.640625 13.910156 -2.359375 14.109375 -2.140625 C 14.316406 -1.921875 14.421875 -1.585938 14.421875 -1.140625 C 14.421875 -0.535156 14.1875 -0.132812 13.71875 0.0625 C 13.257812 0.257812 12.691406 0.359375 12.015625 0.359375 C 11.242188 0.359375 10.445312 0.296875 9.625 0.171875 C 8.800781 0.0546875 8.085938 0 7.484375 0 C 6.878906 0 6.164062 0.0546875 5.34375 0.171875 C 4.519531 0.296875 3.742188 0.359375 3.015625 0.359375 C 2.328125 0.359375 1.753906 0.257812 1.296875 0.0625 C 0.835938 -0.132812 0.609375 -0.535156 0.609375 -1.140625 Z M 12.4375 -16.59375 C 12.4375 -15.707031 12.9375 -15.265625 13.9375 -15.265625 C 15.101562 -15.265625 15.957031 -15.847656 16.5 -17.015625 C 17.039062 -18.179688 17.3125 -19.585938 17.3125 -21.234375 C 17.3125 -23.085938 17.070312 -24.554688 16.59375 -25.640625 C 16.113281 -26.734375 15.226562 -27.28125 13.9375 -27.28125 C 13.539062 -27.28125 13.191406 -27.164062 12.890625 -26.9375 C 12.585938 -26.71875 12.4375 -26.367188 12.4375 -25.890625 Z M 12.4375 -16.59375 "/></g></g><g style="fill:#e4e2dd;fill-opacity:1;"><g transform="translate(132.824768, 73.568295)"><path style="stroke:none" d="M 14.296875 0.359375 C 10.273438 0.359375 7.085938 -0.734375 4.734375 -2.921875 C 2.378906 -5.117188 1.203125 -8.164062 1.203125 -12.0625 C 1.203125 -16.007812 2.378906 -19.066406 4.734375 -21.234375 C 7.085938 -23.410156 10.273438 -24.5 14.296875 -24.5 C 18.316406 -24.5 21.503906 -23.410156 23.859375 -21.234375 C 26.210938 -19.066406 27.390625 -16.007812 27.390625 -12.0625 C 27.390625 -8.164062 26.210938 -5.117188 23.859375 -2.921875 C 21.503906 -0.734375 18.316406 0.359375 14.296875 0.359375 Z M 11.15625 -12.0625 C 11.15625 -10.414062 11.242188 -8.898438 11.421875 -7.515625 C 11.609375 -6.128906 11.929688 -5.03125 12.390625 -4.21875 C 12.859375 -3.414062 13.492188 -3.015625 14.296875 -3.015625 C 15.140625 -3.015625 15.789062 -3.414062 16.25 -4.21875 C 16.71875 -5.03125 17.03125 -6.128906 17.1875 -7.515625 C 17.351562 -8.898438 17.4375 -10.414062 17.4375 -12.0625 C 17.4375 -13.757812 17.351562 -15.289062 17.1875 -16.65625 C 17.03125 -18.019531 16.71875 -19.101562 16.25 -19.90625 C 15.789062 -20.71875 15.140625 -21.125 14.296875 -21.125 C 13.492188 -21.125 12.859375 -20.71875 12.390625 -19.90625 C 11.929688 -19.101562 11.609375 -18.019531 11.421875 -16.65625 C 11.242188 -15.289062 11.15625 -13.757812 11.15625 -12.0625 Z M 11.15625 -12.0625 "/></g></g><g style="fill:#e4e2dd;fill-opacity:1;"><g transform="translate(159.497832, 73.568295)"><path style="stroke:none" d="M 1.203125 -5.796875 C 1.203125 -6.597656 1.429688 -7.238281 1.890625 -7.71875 C 2.359375 -8.207031 3.035156 -8.453125 3.921875 -8.453125 C 4.679688 -8.453125 5.300781 -8.171875 5.78125 -7.609375 C 6.269531 -7.046875 6.773438 -6.398438 7.296875 -5.671875 C 7.828125 -4.953125 8.492188 -4.304688 9.296875 -3.734375 C 10.097656 -3.171875 11.179688 -2.890625 12.546875 -2.890625 C 13.597656 -2.890625 14.425781 -3 15.03125 -3.21875 C 15.632812 -3.445312 15.9375 -3.960938 15.9375 -4.765625 C 15.9375 -5.410156 15.582031 -5.929688 14.875 -6.328125 C 14.164062 -6.734375 13.269531 -7.109375 12.1875 -7.453125 C 11.101562 -7.796875 9.945312 -8.175781 8.71875 -8.59375 C 7.488281 -9.019531 6.332031 -9.550781 5.25 -10.1875 C 4.164062 -10.832031 3.269531 -11.664062 2.5625 -12.6875 C 1.863281 -13.71875 1.515625 -15.019531 1.515625 -16.59375 C 1.515625 -18.363281 1.914062 -19.78125 2.71875 -20.84375 C 3.519531 -21.914062 4.523438 -22.710938 5.734375 -23.234375 C 6.941406 -23.753906 8.140625 -24.09375 9.328125 -24.25 C 10.515625 -24.414062 11.488281 -24.5 12.25 -24.5 C 14.300781 -24.5 16.210938 -24.253906 17.984375 -23.765625 C 19.753906 -23.285156 21.179688 -22.570312 22.265625 -21.625 C 23.347656 -20.6875 23.890625 -19.53125 23.890625 -18.15625 C 23.890625 -17.476562 23.640625 -16.894531 23.140625 -16.40625 C 22.640625 -15.925781 22.046875 -15.6875 21.359375 -15.6875 C 20.316406 -15.6875 19.472656 -15.976562 18.828125 -16.5625 C 18.179688 -17.144531 17.597656 -17.804688 17.078125 -18.546875 C 16.554688 -19.296875 15.953125 -19.960938 15.265625 -20.546875 C 14.578125 -21.128906 13.691406 -21.421875 12.609375 -21.421875 C 11.523438 -21.421875 10.8125 -21.164062 10.46875 -20.65625 C 10.125 -20.15625 9.953125 -19.644531 9.953125 -19.125 C 9.953125 -18.363281 10.296875 -17.78125 10.984375 -17.375 C 11.671875 -16.976562 12.554688 -16.644531 13.640625 -16.375 C 14.722656 -16.113281 15.867188 -15.820312 17.078125 -15.5 C 18.285156 -15.1875 19.429688 -14.753906 20.515625 -14.203125 C 21.597656 -13.660156 22.484375 -12.894531 23.171875 -11.90625 C 23.859375 -10.925781 24.203125 -9.632812 24.203125 -8.03125 C 24.203125 -5.976562 23.609375 -4.335938 22.421875 -3.109375 C 21.234375 -1.878906 19.710938 -0.992188 17.859375 -0.453125 C 16.003906 0.0859375 14.054688 0.359375 12.015625 0.359375 C 11.160156 0.359375 10.128906 0.257812 8.921875 0.0625 C 7.722656 -0.132812 6.53125 -0.460938 5.34375 -0.921875 C 4.15625 -1.390625 3.164062 -2.015625 2.375 -2.796875 C 1.59375 -3.585938 1.203125 -4.585938 1.203125 -5.796875 Z M 1.203125 -5.796875 "/></g></g><g style="fill:#e4e2dd;fill-opacity:1;"><g transform="translate(182.97251, 73.568295)"><path style="stroke:none" d="M 0.609375 -22.6875 C 0.609375 -23.289062 0.804688 -23.691406 1.203125 -23.890625 C 1.609375 -24.097656 2.171875 -24.300781 2.890625 -24.5 C 3.617188 -24.695312 4.46875 -25.097656 5.4375 -25.703125 C 6.71875 -26.503906 7.640625 -27.273438 8.203125 -28.015625 C 8.765625 -28.765625 9.207031 -29.367188 9.53125 -29.828125 C 9.851562 -30.296875 10.273438 -30.53125 10.796875 -30.53125 C 11.523438 -30.53125 11.957031 -30.164062 12.09375 -29.4375 C 12.238281 -28.71875 12.3125 -27.914062 12.3125 -27.03125 L 12.3125 -24.796875 C 12.3125 -24.359375 12.53125 -24.140625 12.96875 -24.140625 L 13.9375 -24.140625 C 14.945312 -24.140625 15.453125 -23.632812 15.453125 -22.625 C 15.453125 -21.582031 14.945312 -21.0625 13.9375 -21.0625 L 12.96875 -21.0625 C 12.53125 -21.0625 12.3125 -20.835938 12.3125 -20.390625 L 12.3125 -13.34375 C 12.3125 -10.757812 12.335938 -8.882812 12.390625 -7.71875 C 12.453125 -6.550781 12.769531 -5.6875 13.34375 -5.125 C 13.695312 -4.800781 13.992188 -4.597656 14.234375 -4.515625 C 14.484375 -4.441406 14.664062 -4.34375 14.78125 -4.21875 C 14.90625 -4.101562 14.96875 -3.820312 14.96875 -3.375 C 14.96875 -2.613281 14.535156 -1.800781 13.671875 -0.9375 C 12.804688 -0.0703125 11.285156 0.359375 9.109375 0.359375 C 6.578125 0.359375 4.859375 -0.550781 3.953125 -2.375 C 3.046875 -4.207031 2.59375 -6.59375 2.59375 -9.53125 L 2.65625 -18.28125 C 2.65625 -19.363281 2.484375 -20.117188 2.140625 -20.546875 C 1.796875 -20.972656 1.453125 -21.304688 1.109375 -21.546875 C 0.773438 -21.785156 0.609375 -22.164062 0.609375 -22.6875 Z M 0.609375 -22.6875 "/></g></g><g style="fill:#e4e2dd;fill-opacity:1;"><g transform="translate(120.369817, 114.408465)"><path style="stroke:none" d="M 2.65625 -22.390625 C 2.65625 -23.753906 2.550781 -24.785156 2.34375 -25.484375 C 2.144531 -26.191406 1.90625 -26.71875 1.625 -27.0625 C 1.34375 -27.40625 1.101562 -27.695312 0.90625 -27.9375 C 0.707031 -28.175781 0.609375 -28.519531 0.609375 -28.96875 C 0.609375 -29.613281 0.785156 -30.035156 1.140625 -30.234375 C 1.503906 -30.429688 1.945312 -30.53125 2.46875 -30.53125 C 3.070312 -30.53125 3.722656 -30.46875 4.421875 -30.34375 C 5.128906 -30.226562 5.785156 -30.171875 6.390625 -30.171875 C 6.878906 -30.171875 7.34375 -30.171875 7.78125 -30.171875 C 8.226562 -30.171875 8.648438 -30.171875 9.046875 -30.171875 C 11.660156 -30.171875 13.910156 -30.238281 15.796875 -30.375 C 17.691406 -30.519531 19.265625 -30.570312 20.515625 -30.53125 C 21.847656 -30.488281 22.820312 -30.367188 23.4375 -30.171875 C 24.0625 -29.972656 24.617188 -29.289062 25.109375 -28.125 C 25.710938 -26.675781 26.242188 -25.335938 26.703125 -24.109375 C 27.160156 -22.878906 27.378906 -21.878906 27.359375 -21.109375 C 27.335938 -20.347656 26.890625 -19.96875 26.015625 -19.96875 C 25.484375 -19.96875 25.015625 -20.1875 24.609375 -20.625 C 24.210938 -21.070312 23.765625 -21.617188 23.265625 -22.265625 C 22.765625 -22.910156 22.140625 -23.570312 21.390625 -24.25 C 20.648438 -24.9375 19.675781 -25.53125 18.46875 -26.03125 C 17.257812 -26.539062 15.726562 -26.851562 13.875 -26.96875 C 13.4375 -27.007812 13.078125 -26.890625 12.796875 -26.609375 C 12.515625 -26.328125 12.375 -25.96875 12.375 -25.53125 L 12.375 -18.21875 C 12.375 -17.175781 12.875 -16.710938 13.875 -16.828125 C 15.25 -17.035156 16.265625 -17.328125 16.921875 -17.703125 C 17.585938 -18.085938 18.070312 -18.488281 18.375 -18.90625 C 18.675781 -19.332031 18.96875 -19.695312 19.25 -20 C 19.53125 -20.300781 19.953125 -20.453125 20.515625 -20.453125 C 21.359375 -20.453125 21.859375 -20.171875 22.015625 -19.609375 C 22.179688 -19.046875 22.210938 -18.378906 22.109375 -17.609375 C 22.015625 -16.847656 21.96875 -16.164062 21.96875 -15.5625 C 21.96875 -14.957031 22.015625 -14.273438 22.109375 -13.515625 C 22.210938 -12.753906 22.179688 -12.09375 22.015625 -11.53125 C 21.859375 -10.96875 21.359375 -10.6875 20.515625 -10.6875 C 19.953125 -10.6875 19.53125 -10.828125 19.25 -11.109375 C 18.96875 -11.390625 18.675781 -11.738281 18.375 -12.15625 C 18.070312 -12.582031 17.585938 -12.984375 16.921875 -13.359375 C 16.265625 -13.742188 15.25 -14.019531 13.875 -14.1875 C 12.875 -14.300781 12.375 -13.835938 12.375 -12.796875 L 12.375 -7.78125 C 12.375 -6.375 12.472656 -5.304688 12.671875 -4.578125 C 12.867188 -3.859375 13.097656 -3.328125 13.359375 -2.984375 C 13.628906 -2.640625 13.875 -2.359375 14.09375 -2.140625 C 14.3125 -1.921875 14.421875 -1.585938 14.421875 -1.140625 C 14.421875 -0.535156 14.1875 -0.132812 13.71875 0.0625 C 13.257812 0.257812 12.691406 0.359375 12.015625 0.359375 C 11.285156 0.359375 10.507812 0.296875 9.6875 0.171875 C 8.863281 0.0546875 8.148438 0 7.546875 0 C 6.941406 0 6.222656 0.0546875 5.390625 0.171875 C 4.566406 0.296875 3.796875 0.359375 3.078125 0.359375 C 2.390625 0.359375 1.8125 0.257812 1.34375 0.0625 C 0.882812 -0.132812 0.65625 -0.535156 0.65625 -1.140625 C 0.65625 -1.585938 0.753906 -1.921875 0.953125 -2.140625 C 1.160156 -2.359375 1.40625 -2.640625 1.6875 -2.984375 C 1.96875 -3.328125 2.195312 -3.859375 2.375 -4.578125 C 2.5625 -5.304688 2.65625 -6.375 2.65625 -7.78125 Z M 2.65625 -22.390625 "/></g></g><g style="fill:#e4e2dd;fill-opacity:1;"><g transform="translate(146.6808, 114.408465)"><path style="stroke:none" d="M 14.546875 0.359375 C 12.410156 0.359375 10.316406 -0.0625 8.265625 -0.90625 C 6.210938 -1.75 4.519531 -3.078125 3.1875 -4.890625 C 1.863281 -6.703125 1.203125 -9.078125 1.203125 -12.015625 C 1.203125 -14.503906 1.742188 -16.679688 2.828125 -18.546875 C 3.921875 -20.421875 5.429688 -21.878906 7.359375 -22.921875 C 9.296875 -23.972656 11.53125 -24.5 14.0625 -24.5 C 16.550781 -24.5 18.582031 -24.195312 20.15625 -23.59375 C 21.726562 -22.988281 22.945312 -22.210938 23.8125 -21.265625 C 24.675781 -20.328125 25.265625 -19.363281 25.578125 -18.375 C 25.898438 -17.382812 26.0625 -16.53125 26.0625 -15.8125 C 26.0625 -13.800781 25.4375 -12.160156 24.1875 -10.890625 C 22.945312 -9.617188 21.359375 -8.691406 19.421875 -8.109375 C 17.492188 -7.523438 15.523438 -7.234375 13.515625 -7.234375 C 12.953125 -7.234375 12.539062 -7.03125 12.28125 -6.625 C 12.019531 -6.226562 11.9375 -5.769531 12.03125 -5.25 C 12.132812 -4.726562 12.457031 -4.265625 13 -3.859375 C 13.539062 -3.460938 14.316406 -3.265625 15.328125 -3.265625 C 16.773438 -3.265625 17.921875 -3.523438 18.765625 -4.046875 C 19.609375 -4.566406 20.28125 -5.164062 20.78125 -5.84375 C 21.289062 -6.53125 21.773438 -7.132812 22.234375 -7.65625 C 22.703125 -8.1875 23.316406 -8.453125 24.078125 -8.453125 C 24.765625 -8.453125 25.273438 -8.238281 25.609375 -7.8125 C 25.953125 -7.394531 26.125 -6.921875 26.125 -6.390625 C 26.125 -5.023438 25.59375 -3.835938 24.53125 -2.828125 C 23.46875 -1.828125 22.050781 -1.046875 20.28125 -0.484375 C 18.507812 0.078125 16.597656 0.359375 14.546875 0.359375 Z M 14.0625 -21.421875 C 13.21875 -21.421875 12.539062 -20.914062 12.03125 -19.90625 C 11.53125 -18.90625 11.28125 -17.5625 11.28125 -15.875 C 11.28125 -14.1875 11.53125 -12.835938 12.03125 -11.828125 C 12.539062 -10.816406 13.21875 -10.3125 14.0625 -10.3125 C 14.90625 -10.3125 15.578125 -10.816406 16.078125 -11.828125 C 16.578125 -12.835938 16.828125 -14.1875 16.828125 -15.875 C 16.828125 -17.5625 16.578125 -18.90625 16.078125 -19.90625 C 15.578125 -20.914062 14.90625 -21.421875 14.0625 -21.421875 Z M 14.0625 -21.421875 "/></g></g><g style="fill:#e4e2dd;fill-opacity:1;"><g transform="translate(172.086577, 114.408465)"><path style="stroke:none" d="M 0.609375 -22.6875 C 0.609375 -23.289062 0.804688 -23.691406 1.203125 -23.890625 C 1.609375 -24.097656 2.171875 -24.300781 2.890625 -24.5 C 3.617188 -24.695312 4.46875 -25.097656 5.4375 -25.703125 C 6.71875 -26.503906 7.640625 -27.273438 8.203125 -28.015625 C 8.765625 -28.765625 9.207031 -29.367188 9.53125 -29.828125 C 9.851562 -30.296875 10.273438 -30.53125 10.796875 -30.53125 C 11.523438 -30.53125 11.957031 -30.164062 12.09375 -29.4375 C 12.238281 -28.71875 12.3125 -27.914062 12.3125 -27.03125 L 12.3125 -24.796875 C 12.3125 -24.359375 12.53125 -24.140625 12.96875 -24.140625 L 13.9375 -24.140625 C 14.945312 -24.140625 15.453125 -23.632812 15.453125 -22.625 C 15.453125 -21.582031 14.945312 -21.0625 13.9375 -21.0625 L 12.96875 -21.0625 C 12.53125 -21.0625 12.3125 -20.835938 12.3125 -20.390625 L 12.3125 -13.34375 C 12.3125 -10.757812 12.335938 -8.882812 12.390625 -7.71875 C 12.453125 -6.550781 12.769531 -5.6875 13.34375 -5.125 C 13.695312 -4.800781 13.992188 -4.597656 14.234375 -4.515625 C 14.484375 -4.441406 14.664062 -4.34375 14.78125 -4.21875 C 14.90625 -4.101562 14.96875 -3.820312 14.96875 -3.375 C 14.96875 -2.613281 14.535156 -1.800781 13.671875 -0.9375 C 12.804688 -0.0703125 11.285156 0.359375 9.109375 0.359375 C 6.578125 0.359375 4.859375 -0.550781 3.953125 -2.375 C 3.046875 -4.207031 2.59375 -6.59375 2.59375 -9.53125 L 2.65625 -18.28125 C 2.65625 -19.363281 2.484375 -20.117188 2.140625 -20.546875 C 1.796875 -20.972656 1.453125 -21.304688 1.109375 -21.546875 C 0.773438 -21.785156 0.609375 -22.164062 0.609375 -22.6875 Z M 0.609375 -22.6875 "/></g></g><g style="fill:#e4e2dd;fill-opacity:1;"><g transform="translate(185.905786, 114.408465)"><path style="stroke:none" d="M 1.203125 -12.015625 C 1.203125 -15.753906 2.390625 -18.769531 4.765625 -21.0625 C 7.140625 -23.351562 10.457031 -24.5 14.71875 -24.5 C 18.425781 -24.5 21.234375 -23.671875 23.140625 -22.015625 C 25.054688 -20.367188 26.015625 -18.300781 26.015625 -15.8125 C 26.015625 -14.445312 25.53125 -13.21875 24.5625 -12.125 C 23.59375 -11.039062 22.265625 -10.5 20.578125 -10.5 C 19.210938 -10.5 18.085938 -10.972656 17.203125 -11.921875 C 16.316406 -12.867188 15.875 -13.90625 15.875 -15.03125 C 15.875 -16.351562 15.960938 -17.488281 16.140625 -18.4375 C 16.316406 -19.382812 16.382812 -20.117188 16.34375 -20.640625 C 16.3125 -21.160156 15.972656 -21.421875 15.328125 -21.421875 C 14.316406 -21.421875 13.457031 -20.582031 12.75 -18.90625 C 12.050781 -17.238281 11.722656 -14.976562 11.765625 -12.125 C 11.804688 -9.4375 12.28125 -7.273438 13.1875 -5.640625 C 14.09375 -4.015625 15.429688 -3.222656 17.203125 -3.265625 C 18.410156 -3.265625 19.3125 -3.523438 19.90625 -4.046875 C 20.507812 -4.566406 20.984375 -5.164062 21.328125 -5.84375 C 21.671875 -6.53125 22.023438 -7.132812 22.390625 -7.65625 C 22.753906 -8.1875 23.316406 -8.453125 24.078125 -8.453125 C 24.765625 -8.453125 25.273438 -8.238281 25.609375 -7.8125 C 25.953125 -7.394531 26.125 -6.921875 26.125 -6.390625 C 26.125 -5.023438 25.59375 -3.835938 24.53125 -2.828125 C 23.46875 -1.828125 22.050781 -1.046875 20.28125 -0.484375 C 18.507812 0.078125 16.597656 0.359375 14.546875 0.359375 C 12.410156 0.359375 10.316406 -0.0507812 8.265625 -0.875 C 6.210938 -1.695312 4.519531 -3.023438 3.1875 -4.859375 C 1.863281 -6.691406 1.203125 -9.078125 1.203125 -12.015625 Z M 1.203125 -12.015625 "/></g></g><g style="fill:#e4e2dd;fill-opacity:1;"><g transform="translate(211.311564, 114.408465)"><path style="stroke:none" d="M 7.484375 0 C 6.878906 0 6.164062 0.0546875 5.34375 0.171875 C 4.519531 0.296875 3.742188 0.359375 3.015625 0.359375 C 2.328125 0.359375 1.753906 0.257812 1.296875 0.0625 C 0.835938 -0.132812 0.609375 -0.535156 0.609375 -1.140625 C 0.609375 -1.585938 0.707031 -1.921875 0.90625 -2.140625 C 1.101562 -2.359375 1.34375 -2.640625 1.625 -2.984375 C 1.90625 -3.328125 2.144531 -3.859375 2.34375 -4.578125 C 2.550781 -5.304688 2.65625 -6.375 2.65625 -7.78125 C 2.65625 -8.90625 2.65625 -10.222656 2.65625 -11.734375 C 2.65625 -13.242188 2.664062 -14.78125 2.6875 -16.34375 C 2.707031 -17.914062 2.71875 -19.363281 2.71875 -20.6875 C 2.71875 -22.019531 2.71875 -23.097656 2.71875 -23.921875 C 2.71875 -24.742188 2.71875 -25.15625 2.71875 -25.15625 C 2.71875 -26.25 2.554688 -26.992188 2.234375 -27.390625 C 1.910156 -27.796875 1.585938 -28.117188 1.265625 -28.359375 C 0.941406 -28.597656 0.78125 -28.984375 0.78125 -29.515625 C 0.78125 -30.109375 0.976562 -30.515625 1.375 -30.734375 C 1.78125 -30.960938 2.351562 -31.15625 3.09375 -31.3125 C 3.84375 -31.476562 4.742188 -31.742188 5.796875 -32.109375 C 7.078125 -32.585938 7.957031 -33.015625 8.4375 -33.390625 C 8.925781 -33.773438 9.289062 -34.085938 9.53125 -34.328125 C 9.769531 -34.578125 10.15625 -34.703125 10.6875 -34.703125 C 11.363281 -34.703125 11.832031 -34.378906 12.09375 -33.734375 C 12.351562 -33.085938 12.484375 -32.320312 12.484375 -31.4375 L 12.484375 -20.03125 C 12.609375 -19.75 12.867188 -19.816406 13.265625 -20.234375 C 13.671875 -20.660156 14.234375 -21.207031 14.953125 -21.875 C 15.679688 -22.539062 16.566406 -23.144531 17.609375 -23.6875 C 18.660156 -24.226562 19.867188 -24.5 21.234375 -24.5 C 23.128906 -24.5 24.554688 -24.09375 25.515625 -23.28125 C 26.484375 -22.476562 27.140625 -21.472656 27.484375 -20.265625 C 27.828125 -19.066406 28 -17.84375 28 -16.59375 L 28 -7.78125 C 28 -6.375 28.097656 -5.304688 28.296875 -4.578125 C 28.503906 -3.859375 28.75 -3.328125 29.03125 -2.984375 C 29.3125 -2.640625 29.550781 -2.359375 29.75 -2.140625 C 29.945312 -1.921875 30.046875 -1.585938 30.046875 -1.140625 C 30.046875 -0.535156 29.875 -0.132812 29.53125 0.0625 C 29.195312 0.257812 28.75 0.359375 28.1875 0.359375 C 27.613281 0.359375 26.957031 0.296875 26.21875 0.171875 C 25.476562 0.0546875 24.765625 0 24.078125 0 C 23.429688 0 22.875 0.03125 22.40625 0.09375 C 21.945312 0.15625 21.457031 0.222656 20.9375 0.296875 C 20.132812 0.378906 19.476562 0.203125 18.96875 -0.234375 C 18.46875 -0.679688 18.21875 -1.304688 18.21875 -2.109375 L 18.21875 -12.015625 C 18.21875 -13.941406 18.015625 -15.40625 17.609375 -16.40625 C 17.210938 -17.414062 16.492188 -17.921875 15.453125 -17.921875 C 14.679688 -17.921875 14.003906 -17.609375 13.421875 -16.984375 C 12.835938 -16.359375 12.523438 -15.101562 12.484375 -13.21875 L 12.375 -7.78125 C 12.332031 -6.332031 12.410156 -5.234375 12.609375 -4.484375 C 12.804688 -3.742188 13.046875 -3.222656 13.328125 -2.921875 C 13.617188 -2.617188 13.875 -2.359375 14.09375 -2.140625 C 14.3125 -1.921875 14.421875 -1.585938 14.421875 -1.140625 C 14.421875 -0.535156 14.1875 -0.132812 13.71875 0.0625 C 13.257812 0.257812 12.691406 0.359375 12.015625 0.359375 C 11.242188 0.359375 10.445312 0.296875 9.625 0.171875 C 8.800781 0.0546875 8.085938 0 7.484375 0 Z M 7.484375 0 "/></g></g></g></svg>